<svg width="36" height="246" viewBox="0 0 36 246" fill="none" xmlns="http://www.w3.org/2000/svg">
<path fill-rule="evenodd" clip-rule="evenodd" d="M7.25 234.995C10.9159 235.328 18.2469 237.994 18.25 245.99L18.25 245.99C18.253 237.994 25.2507 235.328 28.75 234.995C25.2507 234.662 18.253 231.996 18.25 224V224C18.2469 231.996 10.9159 234.662 7.25 234.995Z" fill="#8C62D9"/>
<path d="M16.464 186.868L4.8 176.176L4.8 182.512L15.96 192.016H4.8V196.624H30V192.016H17.652L30 181.108V174.412L16.464 186.868ZM4.26 163.159C4.26 170.647 9.588 176.335 17.4 176.335C25.212 176.335 30.54 170.647 30.54 163.159C30.54 155.671 25.212 149.947 17.4 149.947C9.588 149.947 4.26 155.671 4.26 163.159ZM8.976 163.159C8.976 158.407 12.396 155.023 17.4 155.023C22.404 155.023 25.824 158.407 25.824 163.159C25.824 167.875 22.404 171.295 17.4 171.295C12.396 171.295 8.976 167.875 8.976 163.159ZM14.556 129.966V141.918H4.8V146.526H30V141.918H18.948V129.966H30V125.358H4.8V129.966H14.556ZM16.464 110.86L4.8 100.168L4.8 106.504L15.96 116.008H4.8L4.8 120.616H30V116.008H17.652L30 105.1V98.4042L16.464 110.86ZM18.228 86.604L4.8 92.904V98.664L23.556 89.124L30 92.184V87.036L4.8 75.156L4.8 80.268L18.228 86.604ZM4.8 72.9091H30V68.3011H20.676V64.1251C20.676 58.4731 17.256 55.6291 12.648 55.6291C8.184 55.6291 4.8 58.4731 4.8 64.1251V72.9091ZM16.428 68.3011H9.048V64.6291C9.048 62.1451 10.236 60.5611 12.684 60.5611C15.168 60.5611 16.428 62.1451 16.428 64.6291V68.3011ZM30.54 40.4535C30.54 36.5655 29.352 33.7215 27.768 31.4535L23.736 34.1175C24.816 35.6655 25.824 37.7895 25.824 40.4895C25.824 45.3855 22.548 49.0215 17.4 49.0215C12.252 49.0215 8.976 45.3855 8.976 40.4895C8.976 37.7895 9.984 35.6655 11.064 34.1175L7.032 31.4535C5.448 33.7215 4.26 36.5655 4.26 40.4535C4.26 48.4095 9.444 54.0615 17.4 54.0615C25.356 54.0615 30.54 48.4095 30.54 40.4535ZM14.34 23.8285H4.8V28.4365H30V18.4285C30 13.9645 27.588 10.2205 22.188 10.2205C16.752 10.2205 14.34 13.9645 14.34 18.4285V23.8285ZM30 7.48448V2.84048H4.8L4.8 7.48448H30ZM25.752 23.8285H18.588V19.0045C18.588 16.5565 19.848 15.0805 22.188 15.0805C24.456 15.0805 25.752 16.5565 25.752 19.0045V23.8285Z" fill="#8C62D9"/>
</svg>
