<svg width="36" height="183" viewBox="0 0 36 183" fill="none" xmlns="http://www.w3.org/2000/svg">
<path fill-rule="evenodd" clip-rule="evenodd" d="M7.25 171.995C10.9159 172.328 18.2469 174.994 18.25 182.99L18.25 182.99C18.253 174.994 25.2507 172.328 28.75 171.995C25.2507 171.662 18.253 168.996 18.25 161V161C18.2469 168.996 10.9159 171.662 7.25 171.995Z" fill="#8C62D9"/>
<path d="M4.8 133.624H30V129.016H9.12L9.12 118.864H4.8L4.8 133.624ZM4.8 116.187H30V111.578H20.676V107.402C20.676 101.75 17.256 98.9065 12.648 98.9065C8.184 98.9065 4.8 101.75 4.8 107.402L4.8 116.187ZM16.428 111.578H9.048V107.906C9.048 105.422 10.236 103.838 12.684 103.838C15.168 103.838 16.428 105.422 16.428 107.906V111.578ZM30 75.7551L4.8 85.8711V90.4791L30 100.595V95.4831L24.276 93.3591V82.9911L30 80.8671V75.7551ZM10.2 88.1751L20.1 84.5031V91.8471L10.2 88.1751ZM14.556 56.8413L14.556 68.7933H4.8L4.8 73.4013H30V68.7933H18.948V56.8413H30V52.2333H4.8L4.8 56.8413H14.556ZM4.8 49.5792H9.12V42.7032H30V38.0952H9.12L9.12 31.2192H4.8L4.8 49.5792ZM14.34 23.934H4.8L4.8 28.542H30V18.534C30 14.07 27.588 10.326 22.188 10.326C16.752 10.326 14.34 14.07 14.34 18.534V23.934ZM30 7.58997V2.94597H4.8V7.58997H30ZM25.752 23.934H18.588V19.11C18.588 16.662 19.848 15.186 22.188 15.186C24.456 15.186 25.752 16.662 25.752 19.11V23.934Z" fill="#8C62D9"/>
</svg>
