<svg width="20" height="20" viewBox="0 0 20 20" fill="none" xmlns="http://www.w3.org/2000/svg">
<g clip-path="url(#clip0_11_1061)">
<path d="M0.833313 3.33333V8.33333H5.83331" stroke="#F3EFFB" stroke-width="2" stroke-linecap="round" stroke-linejoin="round"/>
<path d="M2.92498 12.5C3.46531 14.0336 4.48943 15.3502 5.84303 16.2511C7.19663 17.1521 8.80638 17.5888 10.4297 17.4954C12.0531 17.402 13.6021 16.7835 14.8434 15.7331C16.0847 14.6828 16.951 13.2575 17.3118 11.672C17.6726 10.0865 17.5084 8.42663 16.8438 6.94258C16.1793 5.45854 15.0504 4.23066 13.6273 3.44397C12.2043 2.65728 10.5641 2.35439 8.95388 2.58093C7.34369 2.80748 5.85074 3.55118 4.69998 4.7L0.833313 8.33333" stroke="#F3EFFB" stroke-width="2" stroke-linecap="round" stroke-linejoin="round"/>
</g>
<defs>
<clipPath id="clip0_11_1061">
<rect width="20" height="20" fill="white"/>
</clipPath>
</defs>
</svg>
