<svg width="18" height="18" viewBox="0 0 18 18" fill="none" xmlns="http://www.w3.org/2000/svg">
<path d="M1.28571 18C0.932143 18 0.629464 17.8756 0.377679 17.6268C0.125893 17.3779 0 17.0788 0 16.7294V2.32941C0 1.98 0.125893 1.68088 0.377679 1.43206C0.629464 1.18324 0.932143 1.05882 1.28571 1.05882H9.42857L8.14286 2.32941H1.28571V16.7294H11.5714V13.7647H12.8571V16.7294C12.8571 17.0788 12.7313 17.3779 12.4795 17.6268C12.2277 17.8756 11.925 18 11.5714 18H1.28571ZM3.42857 14.4V13.1294H9.42857V14.4H3.42857ZM3.42857 11.8588V10.5882H7.71429V11.8588H3.42857ZM11.5714 12.0706L8.14286 8.68235H5.14286V4.44706H8.14286L11.5714 1.05882V12.0706ZM12.8571 10.1224V2.79529C13.6571 3.09176 14.2857 3.61412 14.7429 4.36235C15.2 5.11059 15.4286 5.84471 15.4286 6.56471C15.4286 7.28471 15.1786 7.99765 14.6786 8.70353C14.1786 9.40941 13.5714 9.88235 12.8571 10.1224ZM12.8571 13.1294V11.8165C13.8571 11.4635 14.75 10.8282 15.5357 9.91059C16.3214 8.99294 16.7143 7.87765 16.7143 6.56471C16.7143 5.25176 16.3214 4.13647 15.5357 3.21882C14.75 2.30118 13.8571 1.66588 12.8571 1.31294V0C14.3143 0.381176 15.5357 1.17529 16.5214 2.38235C17.5071 3.58941 18 4.98353 18 6.56471C18 8.14588 17.5071 9.54 16.5214 10.7471C15.5357 11.9541 14.3143 12.7482 12.8571 13.1294Z" fill="#D3BBFF"/>
</svg>
