<svg width="20" height="20" viewBox="0 0 20 20" fill="none" xmlns="http://www.w3.org/2000/svg">
<g clip-path="url(#clip0_11_852)">
<path d="M0.833344 3.33334V8.33334H5.83334" stroke="#8C62D9" stroke-width="2" stroke-linecap="round" stroke-linejoin="round"/>
<path d="M19.1667 16.6667V11.6667H14.1667" stroke="#8C62D9" stroke-width="2" stroke-linecap="round" stroke-linejoin="round"/>
<path d="M17.075 7.50001C16.6524 6.30567 15.9341 5.23785 14.9871 4.39619C14.0402 3.55454 12.8955 2.96648 11.6598 2.68689C10.4241 2.4073 9.13772 2.4453 7.92068 2.79732C6.70365 3.14935 5.59563 3.80394 4.70001 4.70001L0.833344 8.33335M19.1667 11.6667L15.3 15.3C14.4044 16.1961 13.2964 16.8507 12.0793 17.2027C10.8623 17.5547 9.57593 17.5927 8.34025 17.3131C7.10457 17.0335 5.95984 16.4455 5.0129 15.6038C4.06595 14.7622 3.34765 13.6944 2.92501 12.5" stroke="#8C62D9" stroke-width="2" stroke-linecap="round" stroke-linejoin="round"/>
</g>
<defs>
<clipPath id="clip0_11_852">
<rect width="20" height="20" fill="white"/>
</clipPath>
</defs>
</svg>
