<svg width="140" height="31" viewBox="0 0 140 31" fill="none" xmlns="http://www.w3.org/2000/svg">
<path d="M5.48252 3.43347C8.47026 3.43347 10.8928 5.62698 10.8928 8.6197C10.883 10.0063 10.3251 11.3327 9.34083 12.3095C8.35661 13.2862 7.026 13.834 5.63937 13.8333C4.32725 13.8333 3.05995 13.4623 2.10636 12.3793H1.99183V19.9283H0V9.44631C0 5.78632 2.10885 3.43347 5.47754 3.43347M5.44766 12.0805C7.42704 12.0805 8.78149 10.5144 8.78149 8.6197C8.78149 6.72497 7.4619 5.17632 5.45264 5.17632C3.44338 5.17632 2.06404 6.71501 2.06404 8.5948C2.06404 10.4746 3.45832 12.0805 5.45264 12.0805" fill="#8C62D9"/>
<path d="M12.7452 8.63208C12.7452 5.64433 15.2525 3.43091 18.2004 3.43091C21.1483 3.43091 23.6555 5.63935 23.6555 8.63208C23.6555 11.6248 21.1483 13.8308 18.2004 13.8308C15.2525 13.8308 12.7452 11.6223 12.7452 8.63208ZM18.2004 12.0779C20.1922 12.0779 21.5491 10.5393 21.5491 8.63208C21.5491 6.7249 20.1947 5.17625 18.2004 5.17625C16.206 5.17625 14.8541 6.7 14.8541 8.62461C14.8541 10.5492 16.206 12.0705 18.2004 12.0705" fill="#8C62D9"/>
<path d="M31.0203 13.8308C27.8856 13.8308 25.5079 11.6373 25.5079 8.63215C25.5079 5.62698 27.8333 3.43347 30.9481 3.43347C33.3407 3.43347 35.5766 4.72816 36.1467 7.19306H34.0976C33.5997 5.86849 32.4021 5.18379 31.0053 5.18379C28.8965 5.18379 27.6142 6.74987 27.6142 8.6695C27.6142 10.5891 28.9413 12.088 31.0477 12.088C32.4145 12.088 33.6545 11.4606 34.14 10.0215H36.204C35.4571 12.6432 33.3258 13.8408 31.0203 13.8408" fill="#8C62D9"/>
<path d="M43.5962 12.3916L40.3196 5.53975H40.2649V13.6166H38.3403V3.64502H41.4027L44.6519 10.4695H44.7067L47.9558 3.64502H51.0183V13.6166H49.0937V5.53975H49.0389L45.7623 12.3916H43.5962Z" fill="#8C62D9"/>
<path d="M53.1545 8.63208C53.1545 5.64433 55.6618 3.43091 58.6097 3.43091C61.5576 3.43091 64.0648 5.63935 64.0648 8.63208C64.0648 11.6248 61.5576 13.8308 58.6097 13.8308C55.6618 13.8308 53.1545 11.6223 53.1545 8.63208ZM58.6097 12.0779C60.6015 12.0779 61.9559 10.5393 61.9559 8.63208C61.9559 6.7249 60.604 5.17625 58.6097 5.17625C56.6153 5.17625 55.2609 6.7 55.2609 8.62461C55.2609 10.5492 56.6153 12.0705 58.6097 12.0705" fill="#8C62D9"/>
<path d="M65.0756 13.7014V11.6498H65.118C65.3318 11.6484 65.5432 11.6035 65.7393 11.5179C65.9353 11.4323 66.1119 11.3077 66.2583 11.1518C66.6268 10.741 66.8135 9.99904 67.0052 8.911L67.289 7.31505C67.6177 5.48007 68.2725 3.61273 71.0362 3.61273H74.9252V13.6167H72.9334V5.45517H71.3798C69.8286 5.45517 69.5 5.88342 69.139 8.00472L68.89 9.49859C68.6634 10.8655 68.3223 12.0481 67.6102 12.8025C67.3101 13.1058 66.9495 13.3423 66.5518 13.4968C66.1541 13.6512 65.7283 13.7201 65.3022 13.6989L65.0756 13.7014Z" fill="#8C62D9"/>
<path d="M77.1312 8.63215C77.1312 5.63943 79.6459 3.43347 82.6087 3.43347C85.5716 3.43347 88.0639 5.64191 88.0639 8.63464C88.0639 11.6274 85.5442 13.8308 82.6087 13.8308C79.6733 13.8308 77.1312 11.6224 77.1312 8.63215ZM82.6087 12.078C84.6006 12.078 85.955 10.5393 85.955 8.63215C85.955 6.72497 84.6006 5.17632 82.6087 5.17632C80.6169 5.17632 79.26 6.70008 79.26 8.62468C79.26 10.5493 80.6144 12.0706 82.6087 12.0706" fill="#8C62D9"/>
<path d="M90.357 16.0393H88.4348V11.7643H89.732C90.2997 11.1244 90.601 10.1708 90.8699 9.02553L91.2981 7.16814C91.7114 5.38545 92.4808 3.60526 94.9432 3.60526H98.8173V11.7668H100.256V16.0418H98.3342V13.6167H90.3669L90.357 16.0393ZM96.8528 11.8066V5.42529H94.988C93.7754 5.42529 93.3621 6.39382 93.1206 7.41712L92.6799 9.34173C92.431 10.4098 92.0674 11.2912 91.6965 11.6622V11.8041L96.8528 11.8066Z" fill="#8C62D9"/>
<path d="M107.223 13.8308C104.046 13.8308 101.745 11.6373 101.745 8.6321C101.745 5.62692 104.061 3.43342 107.151 3.43342C109.543 3.43342 112.421 4.99949 112.421 8.78895V9.20226H103.732C103.946 10.8679 105.241 12.078 107.218 12.078C108.386 12.078 109.782 11.6497 110.166 10.6389H112.217C111.59 12.8324 109.269 13.8308 107.238 13.8308M103.772 0H105.838V2.06403H103.772V0ZM110.342 7.66606C110.029 6.15725 108.849 5.14639 107.123 5.14639C106.366 5.12147 105.624 5.35855 105.021 5.81762C104.419 6.27668 103.993 6.92959 103.817 7.66606H110.342ZM108.254 0H110.318V2.06403H108.254V0Z" fill="#8C62D9"/>
<path d="M121.82 3.64502V7.60627H123.489L125.839 3.64502H128.032L125.112 8.40301L128.274 13.6166H126.038L123.516 9.41386H121.82V13.6166H119.941V9.41386H118.245L115.725 13.6166H113.49L116.652 8.40301L113.731 3.64502H115.925L118.275 7.60627H119.941V3.64502H121.82Z" fill="#8C62D9"/>
<path d="M129.666 9.13003L129.638 3.6525H131.63L131.645 6.48837H131.7C132.076 6.00186 132.561 5.61004 133.116 5.34419C133.67 5.07833 134.279 4.94579 134.894 4.95714C137.344 4.95714 139.324 6.77967 139.324 9.32921C139.324 11.8788 137.302 13.8308 134.523 13.8308C131.745 13.8308 129.681 11.8389 129.666 9.13003ZM134.481 12.0779C136.062 12.0779 137.22 10.9675 137.22 9.41387C137.158 8.73314 136.844 8.10011 136.339 7.63914C135.835 7.17817 135.176 6.92258 134.492 6.92258C133.809 6.92258 133.15 7.17817 132.645 7.63914C132.14 8.10011 131.826 8.73314 131.765 9.41387C131.765 10.9675 132.92 12.0779 134.486 12.0779" fill="#8C62D9"/>
<path d="M52.1561 21.4596H48.8322V27.3056H47.7666V20.4512H52.1561V21.4596Z" fill="#8C62D9"/>
<path d="M53.0798 20.4511H54.148V21.6661H54.1778C54.6534 20.8071 55.5298 20.2295 56.7747 20.2295C58.6595 20.2295 60.1708 21.6063 60.1708 23.877C60.1708 26.1477 58.6595 27.5271 56.7747 27.5271C55.5298 27.5271 54.6534 26.9494 54.1778 26.088H54.148V30.2708H53.0798V20.4511ZM59.0553 23.877C59.0553 22.3632 58.0744 21.2802 56.5655 21.2802C55.0567 21.2802 54.0907 22.3632 54.0907 23.877C54.0907 25.3908 55.0692 26.4739 56.5655 26.4739C58.0619 26.4739 59.0553 25.3908 59.0553 23.877Z" fill="#8C62D9"/>
<path d="M61.0721 23.877C61.0721 21.6063 62.5858 20.2295 64.4681 20.2295C65.713 20.2295 66.5894 20.8071 67.065 21.6661H67.0949V20.4511H68.168V27.3055H67.0998V26.0905H67.07C66.5944 26.9519 65.7205 27.5296 64.4731 27.5296C62.5908 27.5296 61.077 26.1502 61.077 23.8795M67.1596 23.8795C67.1596 22.3657 66.1786 21.2827 64.6822 21.2827C63.1859 21.2827 62.1925 22.3657 62.1925 23.8795C62.1925 25.3933 63.1709 26.4764 64.6822 26.4764C66.1935 26.4764 67.1596 25.3933 67.1596 23.8795Z" fill="#8C62D9"/>
<path d="M75.9983 20.4512V27.3056H74.9302V24.1735H70.9391V27.3056H69.8734V20.4512H70.9391V23.18H74.9302V20.4512H75.9983Z" fill="#8C62D9"/>
<path d="M83.266 21.4297H80.6269V27.3056H79.5587V21.4297H76.932V20.4512H83.266V21.4297Z" fill="#8C62D9"/>
<path d="M89.7943 25.1395C89.7943 26.4143 88.873 27.3056 87.4489 27.3056H84.2122V20.4512H85.2803V22.9883H87.4738C88.883 22.9883 89.8042 23.8174 89.8042 25.1395M88.6763 25.1544C88.6763 24.3826 88.2456 23.9519 87.3568 23.9519H85.2803V26.3396H87.3393C88.2282 26.3396 88.6589 25.8939 88.6589 25.1544M91.572 27.3056H90.5039V20.4512H91.572V27.3056Z" fill="#8C62D9"/>
</svg>
