<svg width="47" height="47" viewBox="0 0 47 47" fill="none" xmlns="http://www.w3.org/2000/svg">
<path d="M1.17157 40.0624C-0.390524 41.6245 -0.390524 44.1572 1.17157 45.7193C2.73367 47.2814 5.26633 47.2814 6.82843 45.7193L1.17157 40.0624ZM46.8909 4C46.8909 1.79086 45.1 -3.09059e-06 42.8909 -3.09059e-06H6.89087C4.68173 -3.09059e-06 2.89087 1.79086 2.89087 4C2.89087 6.20914 4.68173 8 6.89087 8H38.8909V40C38.8909 42.2091 40.6817 44 42.8909 44C45.1 44 46.8909 42.2091 46.8909 40V4ZM6.82843 45.7193L45.7193 6.82842L40.0624 1.17157L1.17157 40.0624L6.82843 45.7193Z" fill="#CFEA00"/>
</svg>
